<svg width="22" height="22" viewBox="0 0 22 22" fill="none" xmlns="http://www.w3.org/2000/svg">
<path fill-rule="evenodd" clip-rule="evenodd" d="M17 0V4H22L20.35 20.53C20.25 21.35 19.56 22 18.72 22H17V20H18.39L19.79 6H10.23L10 4H15V0H17ZM7.5 7.98999C3.75 7.98999 0 10 0 14H15C15 10 11.25 7.98999 7.5 7.98999ZM0 20.98C0 21.54 0.45001 21.99 1.01001 21.99H14C14.56 21.99 15.01 21.54 15.01 20.98V20H0V20.98ZM7.5 9.99C6.08997 9.99 3.72998 10.45 2.62 12H12.38C11.27 10.45 8.90997 9.99 7.5 9.99ZM0 16H15V18H0V16Z" fill="#CACACA"/>
</svg>
